<svg xmlns="http://www.w3.org/2000/svg" viewBox="0 0 60.65 60.65"><defs><style>.cls-1{fill:#ffc94d;}.cls-2{fill:#fff;}</style></defs><title>Asset 3</title><g id="Layer_2" data-name="Layer 2"><g id="Footer"><g id="Desktop"><circle class="cls-1" cx="30.33" cy="30.33" r="30.33"/><path class="cls-2" d="M30.33,9.49A20.84,20.84,0,1,1,9.49,30.33,20.86,20.86,0,0,1,30.33,9.49Zm0-4.16a25,25,0,1,0,25,25A25,25,0,0,0,30.33,5.33ZM43.87,23.61a10.07,10.07,0,0,1-2.95.81,5.16,5.16,0,0,0,2.26-2.84,10.22,10.22,0,0,1-3.26,1.25,5.13,5.13,0,0,0-8.74,4.68,14.6,14.6,0,0,1-10.57-5.36A5.12,5.12,0,0,0,22.2,29a4.94,4.94,0,0,1-2.32-.64A5.13,5.13,0,0,0,24,33.45a5.15,5.15,0,0,1-2.32.08,5.14,5.14,0,0,0,4.8,3.56,10.3,10.3,0,0,1-7.6,2.13A14.58,14.58,0,0,0,41.31,26.27,10.45,10.45,0,0,0,43.87,23.61Z"/></g></g></g></svg>